<svg fill="none" height="34" viewBox="0 0 148 34" width="148" xmlns="http://www.w3.org/2000/svg"><g fill="#23410a"><path d="m115.479 7.54974h-5.593c-.141 0-.235.09453-.235.23632v.94528c0 .18906-.235.33085-.376.18906-3.525-2.59952-7.801-2.12688-10.151.33084-1.5508 1.60696-2.5378 4.06466-2.6318 6.52246-.0939-.1418-.1879-.2836-.3289-.3781-.799-.8508-2.0209-1.4652-3.6657-1.7488-.564-.1418-1.0339-.2363-1.3629-.3309-.329-.0945-.564-.1417-.705-.2363-.1879-.0945-.2349-.189-.2349-.189-.047-.0473-.047-.1418-.047-.3309 0-.2836.094-.4726.3759-.6144.282-.1891.658-.2836 1.1279-.2836.799 0 1.6449.1891 2.4908.5672.094.0472.329.1418.517.2363.141.0473.282 0 .329-.0945l1.9268-3.78115c.047-.14179 0-.28358-.141-.33085-.235-.09453-.5639-.23632-.6579-.28358-1.5039-.5199-3.0548-.80349-4.6526-.80349-1.1279 0-2.1149.14179-3.0548.42538-.9399.28358-1.6918.70896-2.3498 1.22886-.6579.5199-1.1749 1.18163-1.5039 1.93783-.3289.7562-.5169 1.607-.5169 2.5522 0 1.3234.3759 2.3632 1.1279 3.1195.7519.7562 2.0208 1.2761 3.8067 1.6542.5169.0945.9399.1891 1.2689.2836.2819.0945.5169.189.6579.2836.141.0945.188.189.235.2363.047.0945.047.2363.047.4254 0 .2836-.141.4726-.376.6617-.282.189-.6579.2836-1.1279.2836-1.1749 0-2.4908-.4254-3.8067-1.2289-.047 0-.329-.2363-.5639-.3781-.141-.0946-.282-.0473-.376.0945l-2.1148 4.112c-.047.1418 0 .2836.094.3308.188.0945.5169.2836.6109.3309 1.9739 1.0398 3.9477 1.5597 5.9685 1.5597 1.1279 0 2.2088-.1418 3.1958-.4254.9869-.2836 1.8328-.709 2.4908-1.2289.7049-.5199 1.2688-1.2288 1.6448-1.985.235-.4254.376-.8981.47-1.418.235.5672.5639 1.0871.8929 1.5597 3.4309 4.6792 9.3989 3.7339 11.0909 1.9379.141-.1418.423-.0473.423.189v.8508c0 .1418.094.2363.235.2363h5.593c.141 0 .235-.0945.235-.2363v-16.77874c-.047-.14179-.141-.23632-.282-.23632zm-5.922 10.11446c-.188.4727-.47.8981-.846 1.2289-.329.3781-.752.6144-1.222.8507-.47.1891-.987.2836-1.504.2836-.563 0-1.08-.0945-1.55-.2836-.47-.189-.893-.4726-1.222-.8507s-.611-.7562-.799-1.2761c-.188-.4727-.282-.9926-.282-1.5597 0-.5199.094-1.0398.282-1.5125.188-.4726.47-.8507.799-1.2289.329-.3781.752-.6144 1.222-.8507.47-.1891.987-.2836 1.55-.2836.517 0 1.034.0945 1.504.2836s.893.4726 1.222.8507c.329.3782.611.7563.846 1.2762.188.4726.329.9925.329 1.5124-.047.5672-.141 1.0871-.329 1.5597z"/><path d="m78.3047.129395h-5.4985c-.141 0-.235.094527-.235.236319v8.602046c0 .18905-.235.33085-.376.18906-3.4777-2.55226-7.6603-2.07962-10.0101.28358-1.5039 1.5597-2.4908 3.8756-2.5848 6.2861-.047-1.1816-.282-2.2687-.7519-3.2612-.517-1.0871-1.2219-2.0796-2.1149-2.88311-.8929-.80349-1.9738-1.41792-3.1957-1.89056s-2.5848-.66169-3.9947-.66169c-1.4569 0-2.8197.23632-4.0417.70896-1.2218.47264-2.3028 1.08707-3.1957 1.89055-.8929.80345-1.5978 1.74875-2.1148 2.83585-.376.8035-.611 1.7015-.7049 2.5995-.094-.9453-.329-1.796-.705-2.5995-.5169-1.0871-1.2219-2.0796-2.1148-2.88311-.8929-.80349-1.9739-1.41792-3.1958-1.89056-1.2218-.47264-2.5847-.66169-3.9946-.66169-1.4569 0-2.8198.23632-4.0417.70896s-2.3028 1.08707-3.1957 1.89055c-.8929.80345-1.5979 1.74875-2.1148 2.83585-.329.709-.517 1.4179-.658 2.1741v-6.80598c0-.14179-.094-.23632-.235-.23632h-5.5455c-.141 0-.235.09453-.235.23632v.94528c0 .14179-.094.23632-.235.23632-.047 0-.094 0-.141-.04726-1.9268-1.51245-4.3706-2.17414-6.7674-1.51245-4.22965 1.03981-6.67345 5.48259-5.780524 10.01999.187984 1.3706.704944 2.7413 1.550874 3.9229 1.83285 2.505 4.37064 3.3557 6.57945 3.3557 1.5979 0 3.0078-.4726 3.9007-1.087.235-.1418.4699-.2836.7049-.4727.094 0 .188.0945.188.2363v1.0398c0 1.2762-.329 2.2687-.9869 2.9777-.658.7089-1.6449 1.087-2.91377 1.087-1.40988 0-2.34981-.5199-2.77277-1.5124-.047-.0945-.14099-.1891-.23498-.1891h-6.297481c-.140988 0-.2819767.1418-.2349806.2836.1879846.8035.5169576 1.5597.9869186 2.2687.516953.8035 1.221903 1.4652 2.020833 2.0796.84593.5672 1.78585 1.0398 2.91376 1.3707 1.08091.3308 2.30281.5199 3.6187.5199 1.17487 0 2.25577-.1418 3.24277-.3781.9869-.2836 1.9268-.6145 2.6787-1.0871.799-.4727 1.4569-.9926 2.0209-1.6543.5639-.6144.9869-1.3233 1.2219-2.0323.188-.5672.3759-1.2289.4699-1.9851.094-.5199.141-1.0871.141-1.6542v-7.1369c.094.8508.329 1.607.658 2.3159.5169 1.1344 1.1749 2.1269 2.0678 2.9304s1.9268 1.4179 3.1487 1.8906c1.2219.4253 2.5378.6617 3.9947.6617s2.8198-.2364 4.0887-.6617c1.2689-.4254 2.3498-1.0398 3.2427-1.8433s1.5979-1.7488 2.1148-2.8831c.376-.8508.611-1.7488.705-2.7413.094.9452.3289 1.8433.7049 2.6467.517 1.1344 1.1749 2.1269 2.0678 2.9304.893.8035 1.9269 1.4179 3.1488 1.8906 1.2219.4253 2.5378.6617 3.9946.6617 1.4569 0 2.8198-.2364 4.0887-.6617 1.2689-.4254 2.3498-1.0398 3.2427-1.8433.893-.8035 1.5979-1.7488 2.1149-2.8831.4699-.9453.7049-2.0324.7519-3.1667.094 1.7015.6109 3.403 1.6449 4.8682 3.3837 4.6318 9.2582 3.6866 10.9501 1.8905.1409-.1418.4229-.0472.4229.1891v.8507c0 .1418.094.2364.235.2364h5.5925c.141 0 .235-.0946.235-.2364v-24.104586c0-.141792-.094-.236319-.235-.236319zm-64.9956 17.440405c-.188.4726-.4699.8508-.7989 1.2289-.329.3308-.752.6144-1.2219.8035-.47.189-.9869.2835-1.50389.2835-.56395 0-1.03392-.0945-1.50388-.2835-.46996-.1891-.89292-.4727-1.22189-.8035-.32898-.3309-.61095-.7563-.79894-1.2289-.18798-.4726-.28198-.9925-.28198-1.5124s.094-1.0399.28198-1.4652c.18799-.4727.46996-.8508.79894-1.1816.32897-.3309.75193-.6145 1.22189-.8035.46996-.1891.98692-.2836 1.50388-.2836.51699 0 1.03389.0945 1.50389.2836.4699.189.8929.4726 1.2219.8035.329.3308.6109.7562.7989 1.2288.188.4727.329.9926.329 1.5125 0 .4254-.094.9453-.329 1.4179zm19.5974.0945c-.188.4727-.47.898-.7989 1.2289-.329.3308-.752.6144-1.2219.8035-.47.189-.987.2836-1.5039.2836-.517 0-1.0339-.0946-1.5039-.2836-.4699-.1891-.8929-.4727-1.2219-.8035-.329-.3309-.6109-.7562-.7989-1.2289-.188-.4726-.329-.9925-.329-1.5597 0-.5199.094-1.0398.329-1.4652.188-.4726.4699-.8507.7989-1.2288.329-.3309.752-.6145 1.2219-.8035.47-.1891.9869-.2836 1.5039-.2836.5169 0 1.0339.0945 1.5039.2836.4699.189.8929.4726 1.2219.8035.3289.3308.6109.7562.7989 1.2288.188.4727.329.9926.329 1.5125s-.094 1.0398-.329 1.5124zm20.1143 0c-.188.4727-.4699.898-.7989 1.2289-.329.3308-.7519.6144-1.2219.8035-.47.189-.9869.2836-1.5039.2836-.5169 0-1.0339-.0946-1.5039-.2836-.4699-.1891-.8929-.4727-1.2219-.8035-.3289-.3309-.6109-.7562-.7989-1.2289-.188-.4726-.329-.9925-.329-1.5597 0-.5199.094-1.0398.329-1.4652.188-.4726.47-.8507.7989-1.2288.329-.3309.752-.6145 1.2219-.8035.47-.1891.987-.2836 1.5039-.2836.517 0 1.0339.0945 1.5039.2836.47.189.8929.4726 1.2219.8035.329.3308.6109.7562.7989 1.2288.188.4727.329.9926.329 1.5125-.047.5199-.141 1.0398-.329 1.5124zm19.4094.0473c-.188.4726-.4699.8507-.7989 1.2289-.329.3308-.752.6144-1.2219.8034-.47.1891-.9869.2836-1.5039.2836-.5639 0-1.0339-.0945-1.5039-.2836-.4699-.189-.8929-.4726-1.2219-.8034-.3289-.3309-.6109-.7563-.7989-1.2289s-.282-.9925-.282-1.5125c0-.5199.094-1.0398.282-1.4651.188-.4727.47-.8508.7989-1.1816.329-.3309.752-.6145 1.2219-.8035.47-.1891.987-.2836 1.5039-.2836.517 0 1.0339.0945 1.5039.2836.4699.189.8929.4726 1.2219.8035.329.3308.6109.7562.7989 1.2288.188.4727.329.9926.329 1.5125 0 .4726-.094.9453-.329 1.4179z"/><path d="m143.723 8.7314c-.517-.51991-1.128-.85076-1.833-1.08708-.704-.23632-1.456-.33084-2.255-.33084-2.397 0-4.23.99254-5.593 2.93032-.094.1418-.282.1418-.423 0-1.316-1.93778-3.196-2.88306-5.592-2.88306-1.88 0-3.572.6617-5.123 1.98509-.141.14179-.423.04726-.423-.18906v-1.32339c0-.14179-.094-.23632-.235-.23632h-5.545c-.141 0-.235.09453-.235.23632v16.68422c0 .1418.094.2363.235.2363h5.545c.141 0 .235-.0945.235-.2363v-8.2712c0-.898.094-1.6543.235-2.2214.141-.5672.329-.9926.611-1.3234.235-.3309.564-.5199.893-.6617.329-.0946.705-.1891 1.081-.1891.423 0 .846.0473 1.175.1891s.611.3308.799.7089c.188.3309.376.8035.47 1.3707s.188 1.2761.188 2.1741v8.224c0 .1418.094.2363.235.2363h5.545c.141 0 .235-.0945.235-.2363v-8.2712c0-2.8359.987-4.2538 2.914-4.2538.376 0 .705.0473.987.1891.329.0945.564.3308.799.6144.235.3308.423.7562.517 1.3234.141.5672.188 1.2761.188 2.1269v8.2239c0 .1418.094.2363.235.2363h5.545c.141 0 .235-.0945.235-.2363v-10.8707c0-1.1344-.141-2.1269-.47-2.9304-.282-.80347-.658-1.46516-1.175-1.9378z"/><path d="m147.765 23.5251-.329.709-.376-.709h-.235v1.1344h.188v-.8035l.329.6617h.141l.329-.6617v.8035h.188v-1.1344z"/><path d="m145.791 23.7142h.329v.9453h.235v-.9453h.329v-.1891h-.893z"/></g></svg>